<?xml version="1.0" encoding="iso-8859-1"?>
<!-- Generator: Adobe Illustrator 19.0.0, SVG Export Plug-In . SVG Version: 6.00 Build 0)  -->
<svg version="1.1" id="Capa_1" xmlns="http://www.w3.org/2000/svg" xmlns:xlink="http://www.w3.org/1999/xlink" x="0px" y="0px"
	 viewBox="0 0 512 512" style="enable-background:new 0 0 512 512;" xml:space="preserve">
<path style="fill:#585A60;" d="M230.152,477.535c-4.995,17.313,8.044,34.385,25.848,34.385c17.803,0,30.843-17.074,25.848-34.385
	C265.142,480.197,247.727,480.337,230.152,477.535z"/>
<path style="fill:#E5E1E1;" d="M255.999,111.405c-4.237,0-7.672-3.435-7.672-7.672V7.672c0-4.237,3.435-7.672,7.672-7.672
	s7.672,3.435,7.672,7.672v96.061C263.671,107.97,260.236,111.405,255.999,111.405z"/>
<g>
	<path style="fill:#414356;" d="M286.308,148.092c0,6.993-5.67,12.663-12.662,12.663h-35.291c-6.994,0-12.663-5.669-12.663-12.663
		v-41.593c0-6.993,5.669-12.663,12.663-12.663h35.291c6.992,0,12.662,5.669,12.662,12.663V148.092z"/>
	<path style="fill:#414356;" d="M260.032,479.529c-10.022,0.246-19.923-0.406-29.88-1.994c-6.987,24.216,20.319,43.879,41.032,29.69
		C262.387,501.2,257.763,490.416,260.032,479.529z"/>
</g>
<path style="fill:#2C3044;" d="M256.061,148.092v-41.593c0-6.993,5.669-12.663,12.663-12.663h-30.369
	c-6.994,0-12.663,5.669-12.663,12.663v41.593c0,6.993,5.669,12.663,12.663,12.663h30.369
	C261.73,160.755,256.061,155.085,256.061,148.092z"/>
<path style="fill:#F76A66;" d="M279.138,157.442c-3.495,1.689-2.356,1.267-40.783,1.267c-1.972,0-3.83-0.463-5.493-1.267
	c-79.016,11.236-139.777,79.153-139.777,161.272c0,89.976,72.939,162.915,162.915,162.915s162.916-72.94,162.916-162.915
	C418.915,236.595,358.154,168.679,279.138,157.442z"/>
<path style="fill:#EA5E5E;" d="M113.542,318.715c0-79.468,56.902-145.633,132.184-160.006h-7.37c-1.972,0-3.83-0.463-5.493-1.267
	c-79.016,11.236-139.777,79.153-139.777,161.272c0,93.444,78.666,168.429,173.144,162.587
	C181.019,476.021,113.542,405.253,113.542,318.715z"/>
<path style="fill:#EA473B;" d="M255.999,204.385c44.237,0,86.208,3.08,123.926,8.594c-25.151-29.443-60.605-49.822-100.787-55.536
	c-3.495,1.689-2.356,1.267-40.783,1.267c-1.972,0-3.83-0.463-5.493-1.267c-40.182,5.714-75.636,26.092-100.787,55.536
	C169.793,207.464,211.762,204.385,255.999,204.385z"/>
<path style="fill:#D63322;" d="M227.995,158.22c-0.853,0.148-1.706,0.294-2.554,0.454c-0.442,0.084-0.88,0.179-1.321,0.266
	c-0.783,0.155-1.567,0.308-2.346,0.474c-0.455,0.097-0.906,0.205-1.36,0.306c-0.762,0.17-1.525,0.337-2.283,0.517
	c-0.445,0.106-0.886,0.221-1.329,0.331c-0.762,0.189-1.526,0.375-2.284,0.573c-0.435,0.114-0.867,0.238-1.301,0.356
	c-0.762,0.207-1.524,0.412-2.281,0.629c-0.42,0.121-0.835,0.25-1.254,0.374c-0.767,0.227-1.535,0.453-2.297,0.691
	c-0.4,0.125-0.797,0.258-1.196,0.386c-0.776,0.249-1.552,0.497-2.323,0.758c-0.38,0.128-0.757,0.264-1.135,0.395
	c-0.785,0.272-1.569,0.543-2.348,0.826c-0.362,0.131-0.72,0.269-1.081,0.403c-0.793,0.295-1.585,0.59-2.372,0.896
	c-0.339,0.132-0.675,0.27-1.012,0.404c-0.802,0.319-1.604,0.638-2.4,0.969c-0.32,0.133-0.636,0.271-0.954,0.406
	c-0.812,0.344-1.622,0.689-2.427,1.045c-0.296,0.131-0.588,0.267-0.883,0.399c-0.821,0.37-1.641,0.742-2.455,1.124
	c-0.278,0.13-0.552,0.265-0.829,0.397c-0.827,0.395-1.652,0.792-2.471,1.2c-0.257,0.128-0.512,0.26-0.769,0.389
	c-0.835,0.421-1.667,0.846-2.493,1.281c-0.236,0.124-0.469,0.251-0.704,0.377c-0.843,0.449-1.684,0.902-2.517,1.366
	c-0.215,0.119-0.428,0.241-0.641,0.361c-0.85,0.477-1.697,0.96-2.537,1.452c-0.194,0.113-0.386,0.229-0.578,0.343
	c-0.857,0.507-1.712,1.019-2.559,1.541c-0.172,0.105-0.342,0.213-0.512,0.32c-0.864,0.536-1.723,1.078-2.576,1.63
	c-0.154,0.1-0.307,0.201-0.461,0.302c-0.867,0.565-1.728,1.136-2.583,1.717c-0.136,0.092-0.271,0.186-0.407,0.279
	c-0.87,0.595-1.735,1.198-2.593,1.809c-0.116,0.082-0.231,0.166-0.347,0.249c-0.874,0.626-1.742,1.26-2.603,1.902
	c-0.099,0.074-0.197,0.149-0.296,0.223c-0.875,0.656-1.744,1.321-2.604,1.994c-0.082,0.064-0.164,0.129-0.246,0.194
	c-0.875,0.687-1.743,1.382-2.603,2.087c-0.067,0.055-0.133,0.11-0.2,0.165c-0.872,0.717-1.738,1.442-2.595,2.176
	c-0.054,0.046-0.108,0.093-0.162,0.14c-0.869,0.746-1.73,1.5-2.582,2.265c-0.041,0.036-0.081,0.073-0.122,0.11
	c-0.863,0.775-1.717,1.558-2.563,2.35c-0.032,0.029-0.063,0.059-0.094,0.088c-0.855,0.803-1.702,1.614-2.539,2.434
	c-0.02,0.02-0.041,0.04-0.062,0.061c-0.847,0.83-1.685,1.67-2.513,2.518c-0.011,0.012-0.023,0.024-0.035,0.036
	c-0.836,0.857-1.663,1.723-2.481,2.598c-0.005,0.005-0.009,0.01-0.014,0.014c-1.649,1.766-3.259,3.568-4.829,5.406
	c7.528-1.1,15.233-2.099,23.084-3.001c23.323-25.995,54.876-44.455,90.566-51.268h-7.37c-1.972,0-3.83-0.463-5.493-1.267
	c-1.246,0.177-2.487,0.369-3.723,0.574C228.756,158.08,228.377,158.153,227.995,158.22z"/>
<path style="fill:#EA473B;" d="M135.632,428.497c64.689,70.887,176.115,70.81,240.736,0
	C300.012,439.273,212.085,439.287,135.632,428.497z"/>
<path style="fill:#D63322;" d="M266.228,481.301c-42.153-2.612-79.96-21.258-107.411-49.904c-7.881-0.868-15.62-1.832-23.185-2.9
	C168.012,463.997,215.309,484.454,266.228,481.301z"/>
<path style="fill:#585A60;" d="M225.692,127.296v20.796c0,6.993,5.669,12.663,12.663,12.663h35.291
	c6.992,0,12.662-5.669,12.662-12.663v-20.796H225.692z"/>
<path style="fill:#414356;" d="M256.061,148.092v-20.796h-30.369v20.796c0,6.993,5.669,12.663,12.663,12.663h30.369
	C261.73,160.755,256.061,155.085,256.061,148.092z"/>
<g>
	<path style="fill:#F5F5F5;" d="M183.419,303.178v-28.516l15.685,29.328c3.9,7.112,15.443,5.017,15.443-0.812V246.18
		c0-6.953-14.774-7.03-14.774,0v28.318c-16.138-31.188-15.578-33.512-23.743-33.512c-4.42,0-7.388,2.123-7.388,5.283v56.91
		C168.642,310.291,183.419,310.156,183.419,303.178z"/>
	<path style="fill:#F5F5F5;" d="M228.382,308.462h31.217c3.468,0,5.284-3.32,5.284-6.599c0-3.924-2.223-6.774-5.284-6.774h-23.128
		V280.84h11.64c7.06,0,6.952-12.32,0-12.32h-11.64v-14.163h23.128c6.982,0,7.088-13.372,0-13.372h-31.217
		c-3.874,0-6.687,2.222-6.687,5.283v56.91C221.695,306.24,224.508,308.462,228.382,308.462z"/>
	<path style="fill:#F5F5F5;" d="M331.994,244.481l-12.091,41.476l-5.956-24.385c-1.436-5.97-12.986-5.973-14.418-0.007
		l-5.957,24.393l-12.079-41.433c-0.592-2.249-2.56-3.539-5.405-3.539c-4.237,0-10.295,3.019-8.713,7.807l17.358,55.134
		c0.922,3.075,4.482,5.061,9.07,5.061c3.562,0,8.033-1.353,8.919-5.15l4.046-16.808l3.981,16.797
		c1.561,6.673,15.665,7.096,17.986,0.122c18.739-59.524,17.616-55.618,17.616-56.716
		C346.351,241.419,333.688,238.035,331.994,244.481z"/>
	<path style="fill:#F5F5F5;" d="M175.425,325.994c-2.838,0-4.037,1.527-4.913,3.178l-11.919,22.516l-11.823-22.481
		c-1.127-2.252-2.626-3.213-5.018-3.213c-4.475,0-10.81,3.256-8.848,8.185l18.259,31.615l0.011,0.019
		c0.043,0.182,0.028,22.187,0.028,22.375c0,3.468,3.716,5.283,7.387,5.283c4.348,0,7.385-2.173,7.385-5.283V366.09
		c0.001-0.047,0.038-0.156,0.068-0.204c19.753-34.317,18.613-31.892,18.613-33.47C184.655,328.436,179.279,325.994,175.425,325.994z
		"/>
	<path style="fill:#F5F5F5;" d="M225.232,339.365c3.062,0,5.283-2.848,5.283-6.774c0-3.278-1.814-6.598-5.283-6.598h-31.217
		c-3.874,0-6.686,2.221-6.686,5.282v56.911c0,3.061,2.812,5.283,6.686,5.283h31.217c3.469,0,5.283-3.319,5.283-6.598
		c0-3.925-2.222-6.774-5.283-6.774h-23.13v-14.25h11.642c3.431,0,5.282-3.129,5.282-6.072c0-3.562-2.27-6.248-5.282-6.248h-11.642
		v-14.162L225.232,339.365L225.232,339.365z"/>
	<path style="fill:#F5F5F5;" d="M269.199,330.528c-2.043-6.806-15.851-6.753-17.873-0.01l-16.924,55.157l-0.031,0.111
		c-0.118,0.474-0.219,0.883-0.219,1.261c0,4.135,5.25,6.422,8.878,6.422c3.969,0,5.142-2.218,5.48-3.504l2.983-10.439h17.534
		l2.975,10.405c0.347,1.321,1.523,3.538,5.491,3.538c3.707,0,8.877-2.443,8.877-6.422c0-0.426-0.094-0.781-0.175-1.096
		L269.199,330.528z M265.612,367.207h-10.791l5.396-19.042L265.612,367.207z"/>
	<path style="fill:#F5F5F5;" d="M325.737,364.465c6.96-2.937,10.761-9.413,10.761-18.457c0-13.094-7.77-20.015-22.469-20.015
		h-17.364c-3.01,0-5.369,2.282-5.369,5.195v56.998c0,6.972,14.775,7.115,14.775,0v-21.199h4.649l11.971,23.269
		c1.143,2.286,3.182,3.651,5.457,3.651c5.783,0,10.688-6.324,8.089-9.964L325.737,364.465z M321.724,347.061
		c0,9.089-6.353,7.608-15.653,7.608v-15.303C315.294,339.365,321.724,337.943,321.724,347.061z"/>
	<path style="fill:#F5F5F5;" d="M364.887,378.695c-4.289,0-7.651,3.361-7.651,7.651c0,4.219,3.433,7.65,7.651,7.65
		c4.146,0,7.65-3.504,7.65-7.65C372.537,382.198,369.034,378.695,364.887,378.695z"/>
	<path style="fill:#F5F5F5;" d="M358.816,370.737c0,6.937,11.968,6.476,11.968,0c0-11.471,1.228-26.986,1.228-38.583
		c0-8.572-14.336-8.798-14.336,0C357.675,343.721,358.816,359.259,358.816,370.737z"/>
</g>
<g>
</g>
<g>
</g>
<g>
</g>
<g>
</g>
<g>
</g>
<g>
</g>
<g>
</g>
<g>
</g>
<g>
</g>
<g>
</g>
<g>
</g>
<g>
</g>
<g>
</g>
<g>
</g>
<g>
</g>
</svg>
