<?xml version="1.0" encoding="iso-8859-1"?>
<!-- Generator: Adobe Illustrator 19.0.0, SVG Export Plug-In . SVG Version: 6.00 Build 0)  -->
<svg version="1.1" id="Capa_1" xmlns="http://www.w3.org/2000/svg" xmlns:xlink="http://www.w3.org/1999/xlink" x="0px" y="0px"
	 viewBox="0 0 512 512" style="enable-background:new 0 0 512 512;" xml:space="preserve">
<g>
	<path style="fill:#EA473B;" d="M94.766,161.823l-41.296,34.616c4.317-1.688,3.844-1.267,41.296-1.267V161.823z"/>
	<path style="fill:#EA473B;" d="M417.233,161.823v33.35c37.496,0,36.977-0.421,41.296,1.266L417.233,161.823z"/>
	<path style="fill:#EA473B;" d="M451.874,195.172c-16.322,0-372.119,0-391.749,0c-10.115,0-18.315,8.2-18.315,18.315v272.698
		c0,10.115,8.2,18.315,18.315,18.315h391.749c10.114,0,18.316-8.201,18.316-18.315V213.487
		C470.189,203.372,461.988,195.172,451.874,195.172z"/>
</g>
<g>
	<path style="fill:#D63322;" d="M61.811,486.183V213.487c0-10.114,8.2-18.315,18.315-18.315H60.125
		c-10.115,0-18.315,8.2-18.315,18.315v272.698c0,10.115,8.2,18.315,18.315,18.315h20.001
		C70.011,504.5,61.811,496.298,61.811,486.183z"/>
	<path style="fill:#D63322;" d="M94.766,195.172h-34.64c-6.051,0-11.403,2.949-14.737,7.477l49.378,41.39L94.766,195.172
		L94.766,195.172z"/>
</g>
<path style="fill:#C62A1E;" d="M45.388,202.649l16.423,13.766v-2.928c0-10.114,8.2-18.315,18.315-18.315H60.125
	C54.206,195.172,48.781,198.041,45.388,202.649z"/>
<path style="fill:#D63322;" d="M451.874,195.172h-34.641v48.8l0,0c0.053,0.094,0,0,0,0l49.378-41.324
	C463.275,198.12,457.925,195.172,451.874,195.172z"/>
<path style="fill:#8DD83D;" d="M406.485,7.5h-300.97c-5.936,0-10.749,4.813-10.749,10.75v225.788l122.992,103.095l23.06-3.351
	l11.644-23.593c1.441-2.922,5.63-2.928,7.07,0l11.646,23.593l22.479,3.267l123.573-103.077V18.25
	C417.233,12.314,412.421,7.5,406.485,7.5z"/>
<path style="fill:#5CCC2E;" d="M114.767,19.469c0-6.609,5.358-11.969,11.967-11.969h-21.219c-5.936,0-10.749,4.813-10.749,10.75
	v225.788l20.001,16.766C114.767,260.804,114.767,19.469,114.767,19.469z"/>
<path style="fill:#F2D422;" d="M297.288,347.071l-25.777-3.745l-11.529-23.356c-1.625-3.302-6.34-3.3-7.967-0.001l-11.528,23.357
	l-25.778,3.745c-3.641,0.529-5.099,5.008-2.464,7.579l18.655,18.182l-4.403,25.673c-0.289,1.679,0.388,3.344,1.767,4.346
	c0.764,0.556,1.667,0.849,2.612,0.849c0.717,0,1.431-0.176,2.066-0.51l23.055-12.123l23.057,12.123
	c3.187,1.676,7.077-0.997,6.444-4.685l-4.403-25.673l18.655-18.182C302.386,352.08,300.932,347.6,297.288,347.071z"/>
<path style="fill:#E8C018;" d="M256.031,380.333l-18.655-18.182c-1.22-1.191-1.65-2.936-1.123-4.556
	c0.526-1.619,1.9-2.778,3.586-3.023l25.778-3.745l4.797-9.723l-10.432-21.135c-1.625-3.302-6.34-3.3-7.967-0.001l-11.528,23.357
	l-25.778,3.745c-3.641,0.529-5.099,5.008-2.464,7.579l18.655,18.182l-4.403,25.673c-0.289,1.679,0.388,3.344,1.767,4.346
	c0.764,0.556,1.667,0.849,2.612,0.849c0.717,0,1.431-0.176,2.066-0.51l21.066-11.077L256.031,380.333z"/>
<path d="M185.431,152.323v-27.881l15.335,28.674c3.821,6.969,15.099,4.89,15.099-0.793V96.598c0-3.039-2.901-5.079-7.222-5.079
	c-4.388,0-7.222,1.993-7.222,5.079v27.686c-15.778-30.493-15.23-32.765-23.213-32.765c-4.32,0-7.223,2.075-7.223,5.165v55.64
	C170.983,159.288,185.431,159.136,185.431,152.323z"/>
<path d="M259.912,104.592c6.825,0,6.929-13.074,0-13.074h-30.521c-3.787,0-6.537,2.172-6.537,5.165v55.64
	c0,2.992,2.75,5.166,6.537,5.166h30.521c6.934,0,6.823-13.075,0-13.075h-22.612v-13.932h11.381c3.355,0,5.164-3.058,5.164-5.936
	c0-3.482-2.221-6.107-5.164-6.107h-11.381v-13.847L259.912,104.592L259.912,104.592z"/>
<path d="M293.127,135.487l-11.81-40.508c-0.578-2.199-2.502-3.46-5.283-3.46c-4.193,0-10.073,2.995-8.519,7.632l16.97,53.903
	c0.9,3.007,4.381,4.948,8.868,4.948c3.482,0,7.854-1.322,8.72-5.035l3.955-16.433l3.893,16.422
	c1.526,6.526,15.313,6.937,17.585,0.12c18.316-58.181,17.224-54.378,17.224-55.449c0-5.684-12.383-8.994-14.038-2.691l-11.821,40.55
	l-5.822-23.841c-1.401-5.836-12.697-5.839-14.097-0.007L293.127,135.487z"/>
<path d="M177.615,174.63c-2.774,0-3.946,1.493-4.803,3.106l-11.653,22.014l-11.56-21.98c-1.102-2.201-2.567-3.141-4.905-3.141
	c-4.382,0-10.569,3.188-8.651,8.002c0.016,0.027,17.846,30.901,17.862,30.928c0.042,0.179,0.027,21.692,0.027,21.876
	c0,3.391,3.633,5.164,7.222,5.164c4.251,0,7.22-2.124,7.22-5.164c0-0.195-0.037-21.638,0.066-21.804
	c19.235-33.417,18.197-31.153,18.197-32.723C186.639,177.019,181.384,174.63,177.615,174.63z"/>
<path d="M226.312,227.528h-22.613v-13.933h11.383c3.354,0,5.164-3.059,5.164-5.937c0-3.482-2.22-6.108-5.164-6.108h-11.383v-13.847
	h22.613c6.834,0,6.923-13.073,0-13.073h-30.521c-3.787,0-6.536,2.172-6.536,5.164v55.642c0,2.992,2.749,5.164,6.536,5.164h30.521
	C233.252,240.601,233.13,227.528,226.312,227.528z"/>
<path d="M249.069,237.174l2.916-10.206h17.144l2.908,10.173c1.662,6.351,14.048,3.097,14.048-2.82c0-0.416-0.092-0.764-0.172-1.07
	l-16.616-54.187c-1.996-6.654-15.496-6.603-17.474-0.01c-0.051,0.165-16.531,53.868-16.578,54.034
	c-0.115,0.464-0.214,0.863-0.214,1.232C235.031,240.342,247.43,243.419,249.069,237.174z M260.515,196.307l5.275,18.617h-10.552
	L260.515,196.307z"/>
<path d="M324.574,212.243c6.805-2.871,10.522-9.204,10.522-18.046c0-12.802-7.596-19.567-21.968-19.567h-16.978
	c-2.941,0-5.248,2.23-5.248,5.079v55.727c0,6.814,14.444,6.956,14.444,0v-20.727h4.545l11.704,22.75
	c4.37,8.74,17.194-0.631,13.245-6.172L324.574,212.243z M305.345,202.664v-14.962c9.004,0,15.304-1.397,15.304,7.523
	C320.649,204.156,314.343,202.664,305.345,202.664z"/>
<path d="M362.851,243.115c4.053,0,7.479-3.425,7.479-7.479c0-4.055-3.426-7.479-7.479-7.479c-4.193,0-7.48,3.286-7.48,7.479
	C355.371,239.761,358.728,243.115,362.851,243.115z"/>
<path d="M356.916,218.374c0,6.782,11.7,6.33,11.7,0c0-11.201,1.201-26.398,1.201-37.723c0-8.381-14.017-8.601-14.017,0
	C355.801,191.954,356.916,207.18,356.916,218.374z"/>
<path d="M221.627,65.841h70.219c4.143,0,7.5-3.357,7.5-7.5s-3.357-7.5-7.5-7.5h-70.219c-4.142,0-7.5,3.357-7.5,7.5
	C214.127,62.483,217.485,65.841,221.627,65.841z"/>
<path d="M291.847,280.617c4.143,0,7.5-3.358,7.5-7.5c0-4.143-3.357-7.5-7.5-7.5h-70.219c-4.142,0-7.5,3.357-7.5,7.5
	c0,4.142,3.358,7.5,7.5,7.5H291.847z"/>
<path d="M470.189,370.595c-4.143,0-7.5,3.357-7.5,7.5v108.088c0,5.963-4.852,10.815-10.815,10.815H274.239
	c-4.143,0-7.5,3.357-7.5,7.5s3.357,7.5,7.5,7.5h177.636c14.235,0,25.816-11.581,25.816-25.816V378.096
	C477.69,373.954,474.333,370.595,470.189,370.595z"/>
<path d="M462.475,189.958l-37.74-31.636V18.25C424.734,8.186,416.547,0,406.485,0H105.515c-10.063,0-18.25,8.186-18.25,18.25
	v140.072l-37.739,31.635c-8.963,4.053-15.217,13.072-15.217,23.529v272.698C34.309,500.419,45.89,512,60.125,512h179.111
	c4.143,0,7.5-3.357,7.5-7.5s-3.357-7.5-7.5-7.5H60.125c-5.963,0-10.815-4.852-10.815-10.815v-270.46l40.637,34.062l115.179,96.545
	c-2.277,4.571-1.315,9.871,2.233,13.332l16.019,15.613l-3.78,22.039c-0.745,4.325,0.999,8.617,4.549,11.197
	c3.658,2.66,8.344,2.822,12.053,0.873l19.797-10.41c21.333,11.216,21.467,11.724,25.122,11.724c2.428,0,4.75-0.754,6.728-2.186
	c3.549-2.579,5.293-6.868,4.551-11.192l-3.78-22.045l16.022-15.615c3.142-3.064,4.249-7.56,2.893-11.727
	c-0.226-0.694-0.531-1.342-0.871-1.965c133.63-111.466,99.524-82.973,156.026-130.26v127.384c0,4.143,3.357,7.5,7.5,7.5
	c4.143,0,7.5-3.357,7.5-7.5V213.485C477.69,203.029,471.436,194.011,462.475,189.958z M436.395,187.671h-11.662v-9.775
	L436.395,187.671z M87.265,227.964L57.5,203.016c2.2-0.563,1.976-0.344,29.765-0.344V227.964z M87.265,177.897v9.775H75.605
	L87.265,177.897z M102.266,18.25c0-1.792,1.457-3.249,3.248-3.249h300.97c1.791,0,3.248,1.457,3.248,3.249
	c0,6.356,0,217.602,0,222.21l-118.307,98.685l-15.266-2.219l-9.896-20.047c-1.938-3.94-5.871-6.389-10.267-6.389
	c-4.389,0-8.322,2.445-10.262,6.379l-9.899,20.057l-15.836,2.301l-117.737-98.69C102.266,234.158,102.266,21.496,102.266,18.25z
	 M275.327,367.286c-1.769,1.724-2.575,4.206-2.157,6.639l3.229,18.827l-16.908-8.89c-2.185-1.148-4.795-1.148-6.98,0l-16.907,8.891
	l3.229-18.828c0.417-2.433-0.39-4.915-2.157-6.639l-13.681-13.334l18.905-2.747c2.442-0.354,4.555-1.889,5.647-4.103L256,329.973
	l8.454,17.129c1.093,2.214,3.204,3.748,5.647,4.103l18.905,2.747L275.327,367.286z M424.734,202.672
	c28.531,0,27.855-0.131,29.754,0.34l-29.754,24.901V202.672z"/>
<g>
</g>
<g>
</g>
<g>
</g>
<g>
</g>
<g>
</g>
<g>
</g>
<g>
</g>
<g>
</g>
<g>
</g>
<g>
</g>
<g>
</g>
<g>
</g>
<g>
</g>
<g>
</g>
<g>
</g>
</svg>
