<svg id="OwntheDayLogo" xmlns="http://www.w3.org/2000/svg" viewBox="0 0 284.98 52.6"><defs><style>.cls-1{fill:#fff;}.cls-2{fill:#c07af7;}.cls-3{fill:#9db5fb;}.cls-4{fill:#78f2ff;}.cls-5{fill:#6375f1;}.cls-6{fill:#649df8;}.cls-7{fill:#63c3ff;}.cls-8{fill:#196dff;}.cls-9{fill:#0158ff;}.cls-10{fill:#4db2ff;}</style></defs><title>OwntheDay_Logo</title><g id="OwntheDay"><path class="cls-1" d="M89.39,23.5a17.37,17.37,0,0,1-1.07,6.34,13.09,13.09,0,0,1-2.91,4.58,12,12,0,0,1-4.3,2.76,14.74,14.74,0,0,1-5.25.93,14.91,14.91,0,0,1-5.27-.93,11.94,11.94,0,0,1-4.32-2.76,13.33,13.33,0,0,1-2.93-4.58,17.08,17.08,0,0,1-1.09-6.34,16.93,16.93,0,0,1,1.09-6.32,13.29,13.29,0,0,1,3-4.58,12.27,12.27,0,0,1,4.34-2.79,15.07,15.07,0,0,1,10.41,0,11.88,11.88,0,0,1,4.3,2.79,13.6,13.6,0,0,1,2.93,4.58A16.93,16.93,0,0,1,89.39,23.5Zm-21.83,0a14.45,14.45,0,0,0,.56,4.18,9.16,9.16,0,0,0,1.63,3.19,7.4,7.4,0,0,0,2.6,2,8,8,0,0,0,3.47.73,7.91,7.91,0,0,0,3.43-.73,7.4,7.4,0,0,0,2.6-2,9.16,9.16,0,0,0,1.63-3.19,14.45,14.45,0,0,0,.57-4.18,14.45,14.45,0,0,0-.57-4.18,9.15,9.15,0,0,0-1.63-3.19,7.42,7.42,0,0,0-2.6-2,7.91,7.91,0,0,0-3.43-.73,8,8,0,0,0-3.47.73,7.32,7.32,0,0,0-2.6,2.06,9.42,9.42,0,0,0-1.63,3.19A14.25,14.25,0,0,0,67.56,23.5Z"/><path class="cls-1" d="M105.92,24.22q-.93,3.55-2,6.92t-2.12,6.36h-4q-.81-1.86-1.7-4.24t-1.78-5.08q-.89-2.7-1.78-5.69T90.8,16.39H96q.36,1.69.85,3.65t1,4q.53,2,1.1,4t1.14,3.55q.61-1.86,1.19-3.83t1.11-4q.53-2,1-3.85t.83-3.53h3.75q.36,1.66.81,3.53t.95,3.85q.5,2,1.09,4T112,31.57q.53-1.61,1.1-3.55t1.12-4q.55-2,1-4t.85-3.65h5q-.85,3.11-1.74,6.09t-1.78,5.69q-.89,2.7-1.78,5.08t-1.74,4.24h-4q-1-3-2.16-6.36T105.92,24.22Z"/><path class="cls-1" d="M123.38,17.08a32.83,32.83,0,0,1,3.67-.77,31.66,31.66,0,0,1,5-.36,11.52,11.52,0,0,1,4.32.71,6.74,6.74,0,0,1,2.76,2,7.57,7.57,0,0,1,1.45,3.07,17.11,17.11,0,0,1,.42,3.94V37.5h-4.88V26.4a16.07,16.07,0,0,0-.22-2.89,5.12,5.12,0,0,0-.73-1.94,2.91,2.91,0,0,0-1.37-1.09,5.81,5.81,0,0,0-2.12-.34,16.21,16.21,0,0,0-1.94.12q-1,.12-1.49.2v17h-4.88Z"/><path class="cls-1" d="M153.32,10.82l4.88-.81v6.38h7.51v4.08h-7.51v8.6A6.25,6.25,0,0,0,159,32.7a3.19,3.19,0,0,0,2.74,1.09,8.93,8.93,0,0,0,2.36-.28,15.78,15.78,0,0,0,1.63-.52l.81,3.88a18.26,18.26,0,0,1-2.22.75,12.07,12.07,0,0,1-3.23.38,10.22,10.22,0,0,1-3.77-.61,5.56,5.56,0,0,1-2.4-1.76,7,7,0,0,1-1.25-2.79,17.3,17.3,0,0,1-.36-3.73Z"/><path class="cls-1" d="M169,37.5V7l4.88-.81V16.64a13.19,13.19,0,0,1,1.88-.48,11.47,11.47,0,0,1,2.12-.2,10.92,10.92,0,0,1,4.22.71,6.64,6.64,0,0,1,2.68,2,7.72,7.72,0,0,1,1.43,3,17.07,17.07,0,0,1,.42,4V37.5h-4.88V26.4a16,16,0,0,0-.22-2.89,5.12,5.12,0,0,0-.73-1.94,2.93,2.93,0,0,0-1.35-1.09,5.64,5.64,0,0,0-2.1-.34,10,10,0,0,0-2,.2,13.68,13.68,0,0,0-1.49.36V37.5Z"/><path class="cls-1" d="M189.93,27a13.26,13.26,0,0,1,.83-4.88,10.27,10.27,0,0,1,2.2-3.49,9.12,9.12,0,0,1,3.15-2.1,9.75,9.75,0,0,1,3.63-.71,8.7,8.7,0,0,1,6.8,2.7q2.44,2.7,2.44,8.07,0,.4,0,.91t-.06.91H195a5.57,5.57,0,0,0,1.8,3.94,6.83,6.83,0,0,0,4.62,1.39,15.16,15.16,0,0,0,3.25-.32,13.33,13.33,0,0,0,2.32-.69l.65,4a7.76,7.76,0,0,1-1.11.42,15.55,15.55,0,0,1-1.61.4q-.91.18-2,.3a18.57,18.57,0,0,1-2.14.12,13,13,0,0,1-4.84-.83,9,9,0,0,1-3.39-2.3,9.43,9.43,0,0,1-2-3.47A14.17,14.17,0,0,1,189.93,27Zm14.17-2.18a6.42,6.42,0,0,0-.28-1.92,4.62,4.62,0,0,0-.83-1.57,3.91,3.91,0,0,0-1.33-1,4.24,4.24,0,0,0-1.88-.38,4.38,4.38,0,0,0-2,.42,4.52,4.52,0,0,0-1.43,1.11,5.07,5.07,0,0,0-.91,1.57,8.51,8.51,0,0,0-.44,1.82Z"/><path class="cls-1" d="M244.7,23.5a16.21,16.21,0,0,1-1.13,6.32,11.94,11.94,0,0,1-3.21,4.48,13.34,13.34,0,0,1-5,2.66,22.75,22.75,0,0,1-6.48.87q-1.69,0-3.83-.14A25.94,25.94,0,0,1,221,37.1V9.94a24.55,24.55,0,0,1,4.12-.56q2.18-.12,3.88-.12a23.42,23.42,0,0,1,6.42.83,13.24,13.24,0,0,1,5,2.58,11.6,11.6,0,0,1,3.21,4.44A16.44,16.44,0,0,1,244.7,23.5Zm-18.65,9.81q.44,0,1.17.06l2,0q5.13,0,7.65-2.6a10,10,0,0,0,2.52-7.29q0-4.76-2.46-7.3t-7.63-2.54a29.52,29.52,0,0,0-3.23.12Z"/><path class="cls-1" d="M255.16,15.87a12,12,0,0,1,4.08.61,6.5,6.5,0,0,1,2.64,1.7,6.35,6.35,0,0,1,1.41,2.64,13,13,0,0,1,.42,3.41V37q-1.13.24-3.41.58a34.86,34.86,0,0,1-5.15.34,15.43,15.43,0,0,1-3.47-.36A7.28,7.28,0,0,1,249,36.41a5.52,5.52,0,0,1-1.74-2.1,7.27,7.27,0,0,1-.63-3.19,6.16,6.16,0,0,1,.71-3.07,5.79,5.79,0,0,1,1.92-2,8.29,8.29,0,0,1,2.8-1.13,15.87,15.87,0,0,1,3.33-.34,15.25,15.25,0,0,1,1.7.1A15.72,15.72,0,0,1,259,25v-.81a6.35,6.35,0,0,0-.2-1.61,3.36,3.36,0,0,0-.71-1.35,3.31,3.31,0,0,0-1.33-.91,5.77,5.77,0,0,0-2.08-.32,18.37,18.37,0,0,0-3.11.24,13.64,13.64,0,0,0-2.3.56l-.61-4a19.18,19.18,0,0,1,2.7-.65A21.15,21.15,0,0,1,255.16,15.87Zm.4,18.2a18.2,18.2,0,0,0,3.43-.24V28.42a9.31,9.31,0,0,0-1.17-.24,10.88,10.88,0,0,0-1.7-.12,11.22,11.22,0,0,0-1.63.12,5.08,5.08,0,0,0-1.49.44,2.72,2.72,0,0,0-1.07.91,2.54,2.54,0,0,0-.4,1.47,2.58,2.58,0,0,0,1.09,2.4A5.62,5.62,0,0,0,255.56,34.07Z"/><path class="cls-1" d="M285,16.39a153.76,153.76,0,0,1-7.57,21.8,22,22,0,0,1-1.66,3.11,9.24,9.24,0,0,1-1.9,2.14,6.78,6.78,0,0,1-2.34,1.23,11.23,11.23,0,0,1-5.23.14,7.54,7.54,0,0,1-1.68-.53l.89-3.92a7.93,7.93,0,0,0,2.88.57,4.47,4.47,0,0,0,3-.91,7.44,7.44,0,0,0,1.89-2.8q-2.31-4.44-4.44-9.69A106.17,106.17,0,0,1,265,16.39h5.21q.4,1.69,1,3.67t1.28,4q.69,2,1.46,4.06t1.54,3.75q1.29-3.59,2.41-7.65t2-7.85Z"/></g><g id="Calendar"><rect class="cls-2" y="7.51" width="15.03" height="15.03"/><rect class="cls-3" x="15.03" y="7.51" width="15.03" height="15.03"/><rect class="cls-4" x="30.06" y="7.51" width="15.03" height="15.03"/><rect class="cls-5" y="22.54" width="15.03" height="15.03"/><rect class="cls-6" x="15.03" y="22.54" width="15.03" height="15.03"/><rect class="cls-7" x="30.06" y="22.54" width="15.03" height="15.03"/><rect class="cls-8" y="37.57" width="15.03" height="15.03"/><rect class="cls-9" x="15.03" y="37.57" width="15.03" height="15.03"/><polygon class="cls-10" points="30.05 52.6 30.05 37.57 45.08 37.57 30.05 52.6"/><rect class="cls-9" width="45.08" height="7.51"/><circle class="cls-1" cx="15.03" cy="3.76" r="1.53"/><circle class="cls-1" cx="30.06" cy="3.76" r="1.53"/></g></svg>